<?xml version="1.0" encoding="utf-8"?>
<!-- Generator: Adobe Illustrator 20.1.0, SVG Export Plug-In . SVG Version: 6.00 Build 0)  -->
<svg version="1.1" id="Layer_1" xmlns="http://www.w3.org/2000/svg" xmlns:xlink="http://www.w3.org/1999/xlink" x="0px" y="0px"
	 viewBox="0 0 1024 768" style="enable-background:new 0 0 1024 768;" xml:space="preserve">
<style type="text/css">
	.st0{fill:#FFFFFF;}
</style>
<path class="st0" d="M756.1,829.2h-6.6v-3.7c0-1.4,1.1-1.7,1.8-1.7c0.8,0,4.7,0,4.7,0v-6l-6.4,0c-7.1,0-8.7,4.5-8.7,7.4v4h-4.1v6.2
	h4.1c0,8,0,17.6,0,17.6h8.7c0,0,0-9.7,0-17.6h5.8L756.1,829.2z"/>
<path class="st0" d="M839,829.8c0-3.2-2.6-5.8-5.8-5.8h-29.4c-3.2,0-5.8,2.6-5.8,5.8v14.4c0,3.2,2.6,5.8,5.8,5.8h29.4
	c3.2,0,5.8-2.6,5.8-5.8V829.8z M813,843.9v-14.2l12.3,7.1L813,843.9z"/>
<g>
	<path class="st0" d="M901.4,822.8c2.2,0,4,1.8,4,4V847c0,2.2-1.8,4-4,4h-20.3c-2.2,0-4-1.8-4-4v-20.3c0-2.2,1.8-4,4-4H901.4
		 M901.4,819.2h-20.3c-4.2,0-7.6,3.4-7.6,7.6V847c0,4.2,3.4,7.6,7.6,7.6h20.3c4.2,0,7.6-3.4,7.6-7.6v-20.3
		C909,822.6,905.6,819.2,901.4,819.2L901.4,819.2z"/>
	<path class="st0" d="M891.2,832.2c2.6,0,4.7,2.1,4.7,4.7s-2.1,4.7-4.7,4.7s-4.7-2.1-4.7-4.7S888.7,832.2,891.2,832.2 M891.2,828.6
		c-4.6,0-8.3,3.7-8.3,8.3c0,4.6,3.7,8.3,8.3,8.3s8.3-3.7,8.3-8.3C899.5,832.3,895.8,828.6,891.2,828.6L891.2,828.6z"/>
	<path class="st0" d="M900.1,825.9c-1.2,0-2.2,1-2.2,2.2s1,2.2,2.2,2.2s2.2-1,2.2-2.2S901.3,825.9,900.1,825.9L900.1,825.9z"/>
</g>
</svg>
