<?xml version="1.0" encoding="utf-8"?>
<!-- Generator: Adobe Illustrator 19.0.0, SVG Export Plug-In . SVG Version: 6.00 Build 0)  -->
<svg version="1.1" id="Слой_1" xmlns="http://www.w3.org/2000/svg" xmlns:xlink="http://www.w3.org/1999/xlink" x="0px" y="0px"
	 viewBox="-1370.5 795.5 19.1 18.9" style="enable-background:new -1370.5 795.5 19.1 18.9;" xml:space="preserve">
<g>
	<g>
		<path d="M-1355,804.6h-12c-1.9,0-3.5,1.6-3.5,3.5v2.8c0,2,1.6,3.5,3.5,3.5h12.1c1.9,0,3.5-1.6,3.5-3.5v-2.8
			C-1351.5,806.1-1353,804.6-1355,804.6z M-1364.5,806.8h-1.1v5.7h-1.1v-5.7h-1.1v-1h3.3V806.8L-1364.5,806.8z M-1361.3,812.5h-1
			V812c-0.2,0.2-0.4,0.4-0.6,0.5c-0.2,0.1-0.4,0.2-0.6,0.2s-0.4-0.1-0.5-0.2c-0.1-0.1-0.2-0.4-0.2-0.7v-4.1h1v3.8
			c0,0.1,0,0.2,0.1,0.3c0,0.1,0.1,0.1,0.2,0.1c0.1,0,0.2,0,0.3-0.1s0.2-0.2,0.3-0.3v-3.7h1V812.5z M-1357.8,811.4
			c0,0.3-0.1,0.6-0.2,0.8c-0.1,0.2-0.4,0.3-0.7,0.3c-0.2,0-0.4,0-0.5-0.1c-0.1-0.1-0.3-0.2-0.4-0.3v0.4h-1v-6.7h1v2.1
			c0.1-0.1,0.3-0.3,0.4-0.3c0.1-0.1,0.3-0.1,0.4-0.1c0.3,0,0.5,0.1,0.7,0.3s0.2,0.5,0.2,0.9L-1357.8,811.4L-1357.8,811.4z
			 M-1354.5,810.1h-1.8v0.9c0,0.3,0,0.4,0.1,0.5c0.1,0.1,0.2,0.1,0.3,0.1c0.2,0,0.3,0,0.3-0.1c0.1-0.1,0.1-0.3,0.1-0.6v-0.2h1v0.3
			c0,0.5-0.1,0.9-0.4,1.1c-0.2,0.3-0.6,0.4-1.1,0.4c-0.4,0-0.8-0.1-1-0.4c-0.2-0.3-0.4-0.6-0.4-1.1v-2.2c0-0.4,0.1-0.8,0.4-1
			c0.3-0.3,0.6-0.4,1.1-0.4c0.4,0,0.8,0.1,1,0.4c0.2,0.2,0.4,0.6,0.4,1.1V810.1L-1354.5,810.1z M-1355.9,808.3c-0.2,0-0.3,0-0.3,0.1
			c-0.1,0.1-0.1,0.2-0.1,0.4v0.5h0.9v-0.5c0-0.2,0-0.4-0.1-0.4C-1355.7,808.3-1355.8,808.3-1355.9,808.3z M-1359.2,808.3
			c-0.1,0-0.1,0-0.2,0s-0.1,0.1-0.2,0.2v3.1c0.1,0.1,0.2,0.1,0.2,0.2c0.1,0,0.2,0.1,0.2,0.1c0.1,0,0.2,0,0.3-0.1s0.1-0.2,0.1-0.3
			V809c0-0.2,0-0.3-0.1-0.4C-1359,808.3-1359.1,808.3-1359.2,808.3z M-1365.5,802.8h1.2v-3l1.4-4.3h-1.2l-0.8,2.9h-0.1l-0.8-2.9
			h-1.2l1.5,4.4V802.8L-1365.5,802.8z M-1361.2,803c0.5,0,0.9-0.1,1.2-0.4c0.3-0.3,0.4-0.6,0.4-1.1v-2.8c0-0.4-0.1-0.8-0.4-1
			c-0.3-0.3-0.7-0.4-1.1-0.4c-0.5,0-0.9,0.1-1.2,0.4c-0.3,0.2-0.4,0.6-0.4,1v2.8c0,0.5,0.1,0.8,0.4,1.1
			C-1362,802.8-1361.6,803-1361.2,803z M-1361.6,798.6c0-0.1,0-0.2,0.1-0.3s0.2-0.1,0.3-0.1c0.1,0,0.3,0,0.3,0.1
			c0.1,0.1,0.1,0.2,0.1,0.3v2.9c0,0.1,0,0.3-0.1,0.3c-0.1,0.1-0.2,0.1-0.3,0.1c-0.1,0-0.3,0-0.3-0.1c-0.1-0.1-0.1-0.2-0.1-0.3V798.6
			z M-1358,802.9c0.2,0,0.4-0.1,0.6-0.2c0.2-0.1,0.4-0.3,0.6-0.5v0.6h1.1v-5.4h-1.1v4.1c-0.1,0.1-0.2,0.2-0.3,0.3
			c-0.1,0.1-0.2,0.1-0.3,0.1s-0.2,0-0.2-0.1s-0.1-0.1-0.1-0.3v-4.1h-1.1v4.5c0,0.3,0.1,0.6,0.2,0.7
			C-1358.4,802.8-1358.2,802.9-1358,802.9z"/>
	</g>
</g>
</svg>
